<svg width="435.225048828125px" height="88.44614257812499px" xmlns="http://www.w3.org/2000/svg" viewBox="32.387475585937494 30.776928710937504 435.225048828125 88.44614257812499" style="background-color: rgba(0, 0, 0, 0);" preserveAspectRatio="xMidYMid"><defs><linearGradient id="editing-sticker-gradient" x1="0.8" y1="0.49999999999999994" x2="0.2" y2="0.5"><stop offset="0" stop-color="#fd9"></stop><stop offset="1" stop-color="#9df"></stop></linearGradient><filter id="editing-sticker" x="-100%" y="-100%" width="300%" height="300%"><feMorphology operator="erode" radius="1" in="SourceAlpha" result="alpha-erode"></feMorphology><feConvolveMatrix order="3,3" divisor="1" kernelMatrix="0 1 0 1 1 1 0 1 0" in="alpha-erode" result="alpha-round"></feConvolveMatrix><feMorphology operator="dilate" radius="3.5" in="alpha-round" result="dilate-shadow"></feMorphology><feGaussianBlur in="dilate-shadow" stdDeviation="1.5" result="shadow"></feGaussianBlur><feFlood flood-color="#fff" result="flood-sticker"></feFlood><feComposite operator="in" in="flood-sticker" in2="alpha-round" result="comp-sticker"></feComposite><feMorphology operator="dilate" radius="3" in="comp-sticker" result="morph-sticker"></feMorphology><feConvolveMatrix order="3,3" divisor="1" kernelMatrix="0 1 0 1 1 1 0 1 0" in="morph-sticker" result="sticker"></feConvolveMatrix><feMerge><feMergeNode in="shadow"></feMergeNode><feMergeNode in="sticker"></feMergeNode><feMergeNode in="SourceGraphic"></feMergeNode></feMerge></filter></defs><g filter="url(#editing-sticker)"><g transform="translate(98.32000243663788, 96.53718757629395)"><path d="M11.89-23.49L11.89-23.49L11.89-23.49Q8.65-19.43 7.22-15.38L7.22-15.38L7.26-15.38L7.26-15.38Q12.96-15.38 13.80-15.35L13.80-15.35L13.80-15.35Q14.64-15.33 14.72-15.42L14.72-15.42L14.72-15.42Q14.80-15.50 14.84-15.62L14.84-15.62L14.84-15.62Q14.15-20.66 13.74-22.49L13.74-22.49L13.74-22.49Q13.33-24.31 12.92-24.31L12.92-24.31L12.92-24.31Q12.51-24.31 11.89-23.49ZM8.24-4.18L8.24-4.18L9.14-4.35L9.14-4.35Q9.55-4.35 9.55-3.90L9.55-3.90L9.55-3.90Q9.55-2.46 8.98-1.48L8.98-1.48L8.98-1.48Q8.41-0.49 7.54-0.08L7.54-0.08L7.54-0.08Q6.15 0.61 5.17 0.61L5.17 0.61L5.17 0.61Q3.28 0.61 2.34-0.80L2.34-0.80L2.34-0.80Q1.39-2.21 1.39-5.06L1.39-5.06L1.39-5.06Q1.39-7.91 2.95-12.46L2.95-12.46L0.57-12.46L0.57-12.46Q0.12-12.46 0.12-12.92L0.12-12.92L0.12-12.92Q0.12-13.37 0.82-14.37L0.82-14.37L0.82-14.37Q1.52-15.38 2.30-15.38L2.30-15.38L4.14-15.38L4.14-15.38Q7.05-21.85 10.99-26.57L10.99-26.57L10.99-26.57Q12.01-27.80 13.51-28.86L13.51-28.86L13.51-28.86Q15.01-29.93 15.83-29.93L15.83-29.93L15.83-29.93Q16.65-29.93 17.06-29.19L17.06-29.19L17.06-29.19Q18.12-27.47 19.56-16.61L19.56-16.61L19.56-16.61Q20.05-11.93 21.26-6.95L21.26-6.95L21.26-6.95Q22.47-1.97 23.49-1.15L23.49-1.15L23.49-1.15Q23.74-0.98 23.74-0.74L23.74-0.74L23.74-0.74Q23.74-0.12 22.00 0.41L22.00 0.41L22.00 0.41Q20.25 0.94 19.33 0.94L19.33 0.94L19.33 0.94Q18.41 0.94 17.92 0.72L17.92 0.72L17.92 0.72Q17.43 0.49 17.30 0.25L17.30 0.25L17.30 0.25Q16.56-1.35 15.83-7.38L15.83-7.38L15.58-9.31L15.58-9.31Q15.42-11.23 15.25-12.22L15.25-12.22L14.96-12.42L6.40-12.46L6.40-12.46Q5.90-10.37 5.90-8.81L5.90-8.81L5.90-8.81Q5.90-7.26 6.01-6.54L6.01-6.54L6.01-6.54Q6.11-5.82 6.68-5.00L6.68-5.00L6.68-5.00Q7.26-4.18 8.24-4.18ZM24.72 0.29L24.72 0.29L24.72 0.29Q25.46-4.14 25.46-10.33L25.46-10.33L25.46-10.33Q25.46-16.52 25.09-18.37L25.09-18.37L25.09-18.37Q25.09-18.90 26.32-18.90L26.32-18.90L26.32-18.90Q28.21-18.90 28.82-17.47L28.82-17.47L28.82-17.47Q28.86-17.34 29.03-17.34L29.03-17.34L29.03-17.34Q29.19-17.34 29.27-17.43L29.27-17.43L29.27-17.43Q30.55-18.74 33.21-18.74L33.21-18.74L33.21-18.74Q35.88-18.74 37.43-17.38L37.43-17.38L37.43-17.38Q38.99-16.03 38.99-13.45L38.99-13.45L38.99-13.45Q38.99-11.89 38.72-9.02L38.72-9.02L38.72-9.02Q38.46-6.15 38.46-4.76L38.46-4.76L38.46-4.76Q38.46-1.44 39.56 0.04L39.56 0.04L39.56 0.04Q39.73 0.25 39.73 0.45L39.73 0.45L39.73 0.45Q39.73 0.98 38.58 0.98L38.58 0.98L38.58 0.98Q33.50 0.98 33.50-3.53L33.50-3.53L33.50-3.53Q33.50-5.25 34.28-8.32L34.28-8.32L34.28-8.32Q35.06-11.40 35.06-13.00L35.06-13.00L35.06-13.00Q35.06-16.28 32.35-16.28L32.35-16.28L32.35-16.28Q31.04-16.28 30.36-15.50L30.36-15.50L30.36-15.50Q29.68-14.72 29.60-13.71L29.60-13.71L29.60-13.71Q29.52-12.71 29.52-9.92L29.52-9.92L29.52-9.92Q29.52-5.66 29.81-2.50L29.81-2.50L29.89-1.60L29.89-1.60Q29.89-0.45 28.39 0.18L28.39 0.18L28.39 0.18Q26.90 0.82 25.81 0.82L25.81 0.82L25.81 0.82Q24.72 0.82 24.72 0.29ZM54.78-12.30L54.78-12.30L54.69-7.05L54.69-7.05Q54.69-1.60 55.88-0.49L55.88-0.49L55.88-0.49Q56.05-0.33 56.05-0.12L56.05-0.12L56.05-0.12Q56.05 0.49 53.40 0.49L53.40 0.49L53.40 0.49Q50.76 0.49 50.59-1.07L50.59-1.07L50.59-1.07Q50.55-1.44 50.55-2.58L50.55-2.58L50.72-9.14L50.72-9.14Q50.72-9.43 50.39-9.43L50.39-9.43L50.39-9.43Q48.42-9.43 46.70-8.32L46.70-8.32L46.70-8.32Q44.98-7.22 44.98-5.49L44.98-5.49L44.98-5.49Q44.98-4.59 45.47-3.98L45.47-3.98L45.47-3.98Q45.96-3.36 46.68-3.36L46.68-3.36L46.68-3.36Q47.40-3.36 47.87-3.65L47.87-3.65L47.87-3.65Q48.34-3.94 48.42-3.98L48.42-3.98L48.42-3.98Q49.12-3.90 49.12-2.52L49.12-2.52L49.12-2.52Q49.12-1.15 47.85-0.31L47.85-0.31L47.85-0.31Q46.58 0.53 45.18 0.53L45.18 0.53L45.18 0.53Q43.79 0.53 42.78 0.04L42.78 0.04L42.78 0.04Q41.78-0.45 41.33-1.07L41.33-1.07L41.33-1.07Q40.88-1.68 40.59-2.46L40.59-2.46L40.59-2.46Q40.30-3.40 40.30-4.10L40.30-4.10L40.30-4.10Q40.30-6.97 42.11-8.69L42.11-8.69L42.11-8.69Q43.91-10.41 46.74-11.15L46.74-11.15L46.74-11.15Q50.47-11.89 50.64-12.51L50.64-12.51L50.64-12.51Q50.76-12.96 50.76-14.02L50.76-14.02L50.76-14.02Q50.76-16.20 48.54-16.20L48.54-16.20L48.54-16.20Q47.60-16.20 46.86-15.60L46.86-15.60L46.86-15.60Q46.13-15.01 46.13-14.10L46.13-14.10L46.37-13.12L46.37-13.12Q46.29-12.42 44.90-12.30L44.90-12.30L44.44-12.26L44.44-12.26Q43.21-12.26 42.50-12.87L42.50-12.87L42.50-12.87Q41.78-13.49 41.78-14.51L41.78-14.51L41.78-14.51Q41.78-15.17 42.21-15.97L42.21-15.97L42.21-15.97Q42.64-16.77 43.30-17.26L43.30-17.26L43.30-17.26Q43.95-17.75 45.33-18.14L45.33-18.14L45.33-18.14Q46.70-18.53 47.97-18.53L47.97-18.53L47.97-18.53Q49.24-18.53 49.94-18.45L49.94-18.45L49.94-18.45Q50.64-18.37 51.84-18.06L51.84-18.06L51.84-18.06Q53.05-17.75 53.85-16.89L53.85-16.89L53.85-16.89Q54.65-16.03 54.71-15.07L54.71-15.07L54.71-15.07Q54.78-14.10 54.78-12.30ZM57.69-6.27L57.69-6.27L57.69-6.27Q57.77-10.41 57.77-13.08L57.77-13.08L57.77-13.08Q57.77-15.74 57.40-18.16L57.40-18.16L57.40-18.16Q57.40-18.57 58.22-18.57L58.22-18.57L58.22-18.57Q59.04-18.57 59.63-18.37L59.63-18.37L59.63-18.37Q60.23-18.16 60.48-17.92L60.48-17.92L60.48-17.92Q61.13-17.26 61.23-17.26L61.23-17.26L61.23-17.26Q61.34-17.26 61.87-17.63L61.87-17.63L61.87-17.63Q63.47-18.66 65.42-18.66L65.42-18.66L65.42-18.66Q67.36-18.66 68.82-17.67L68.82-17.67L68.82-17.67Q70.27-16.69 70.89-15.09L70.89-15.09L70.89-15.09Q72.00-12.34 72.00-9.27L72.00-9.27L72.00-9.27Q72.00-6.23 70.89-3.20L70.89-3.20L70.89-3.20Q70.27-1.56 69.09-0.51L69.09-0.51L69.09-0.51Q67.90 0.53 66.30 0.53L66.30 0.53L66.30 0.53Q63.14 0.53 63.14-3.12L63.14-3.12L63.14-3.12Q63.14-4.10 63.55-4.10L63.55-4.10L63.55-4.10Q63.63-4.10 64.02-3.92L64.02-3.92L64.02-3.92Q64.41-3.73 64.78-3.73L64.78-3.73L64.78-3.73Q67.69-3.73 67.69-9.90L67.69-9.90L67.69-9.90Q67.69-16.07 64.58-16.07L64.58-16.07L64.58-16.07Q63.71-16.07 63.12-15.68L63.12-15.68L63.12-15.68Q62.53-15.29 62.36-14.92L62.36-14.92L62.20-14.51L62.20-14.51Q61.62-10.82 61.62-0.29L61.62-0.29L61.62-0.29Q61.62 4.47 61.81 6.54L61.81 6.54L61.81 6.54Q61.99 8.61 61.99 9.02L61.99 9.02L61.99 9.02Q61.99 9.43 61.75 9.76L61.75 9.76L61.75 9.76Q60.93 10.82 59.53 11.66L59.53 11.66L59.53 11.66Q58.14 12.51 57.07 12.51L57.07 12.51L57.07 12.51Q56.66 12.51 56.66 11.97L56.66 11.97L56.66 11.97Q57.32 7.83 57.69-6.27ZM77.90-10.41L77.90-10.41L77.94-9.39L77.94-9.39Q77.94-9.14 78.27-9.14L78.27-9.14L78.27-9.14Q79.58-9.27 80.57-9.82L80.57-9.82L80.57-9.82Q81.55-10.37 82.04-11.07L82.04-11.07L82.04-11.07Q83.03-12.59 83.11-13.69L83.11-13.69L83.15-14.19L83.15-14.19Q83.15-16.40 81.39-16.40L81.39-16.40L81.39-16.40Q80.07-16.40 79.25-15.25L79.25-15.25L79.25-15.25Q77.90-13.45 77.90-10.41ZM86.84-4.96L86.84-4.96L86.84-4.96Q86.84-3.40 86.20-2.23L86.20-2.23L86.20-2.23Q85.57-1.07 84.77-0.51L84.77-0.51L84.77-0.51Q83.97 0.04 82.90 0.37L82.90 0.37L82.90 0.37Q81.55 0.78 80.32 0.78L80.32 0.78L80.32 0.78Q76.88 0.78 75.23-1.80L75.23-1.80L75.23-1.80Q73.59-4.39 73.59-8.38L73.59-8.38L73.59-8.38Q73.59-12.38 75.62-15.50L75.62-15.50L75.62-15.50Q77.65-18.61 81.71-18.61L81.71-18.61L81.71-18.61Q85.40-18.61 86.72-16.03L86.72-16.03L86.72-16.03Q87.25-15.05 87.25-14.17L87.25-14.17L87.25-14.17Q87.25-13.28 87.17-12.77L87.17-12.77L87.17-12.77Q87.08-12.26 86.59-11.23L86.59-11.23L86.59-11.23Q86.10-10.21 85.28-9.39L85.28-9.39L85.28-9.39Q84.46-8.57 82.70-7.83L82.70-7.83L82.70-7.83Q80.93-7.09 78.56-6.85L78.56-6.85L78.56-6.85Q78.23-6.85 78.23-6.56L78.23-6.56L78.23-6.56Q78.23-6.19 78.49-5.47L78.49-5.47L78.49-5.47Q78.76-4.76 79.09-4.26L79.09-4.26L79.09-4.26Q79.99-3.12 81.75-3.12L81.75-3.12L81.75-3.12Q83.52-3.12 84.75-4.26L84.75-4.26L84.75-4.26Q85.40-4.88 85.81-5.78L85.81-5.78L85.81-5.78Q85.98-6.11 86.24-6.11L86.24-6.11L86.24-6.11Q86.51-6.11 86.67-5.66L86.67-5.66L86.67-5.66Q86.84-5.21 86.84-4.96ZM97.54-13.28L97.54-13.28L97.54-13.28Q97.38-13.12 97.38-12.94L97.38-12.94L97.38-12.94Q97.38-12.75 98.13-12.59L98.13-12.59L98.13-12.59Q98.89-12.42 99.79-11.69L99.79-11.69L99.79-11.69Q100.70-10.95 101.15-10.09L101.15-10.09L101.15-10.09Q102.01-8.41 102.09-7.13L102.09-7.13L102.13-6.60L102.13-6.60Q102.34-1.80 103.89-0.04L103.89-0.04L103.89-0.04Q104.10 0.25 104.10 0.37L104.10 0.37L104.10 0.37Q104.10 0.82 102.95 0.82L102.95 0.82L102.95 0.82Q99.51 0.82 98.56-0.61L98.56-0.61L98.56-0.61Q98.07-1.19 98.07-4.18L98.07-4.18L98.07-5.21L98.07-5.21Q98.07-9.02 97.13-10.50L97.13-10.50L97.13-10.50Q96.64-11.19 95.92-11.19L95.92-11.19L95.92-11.19Q95.20-11.19 94.42-9.94L94.42-9.94L94.42-9.94Q93.64-8.69 93.64-7.83L93.64-7.83L93.64-7.83Q93.64-4.39 93.81-3.03L93.81-3.03L93.81-3.03Q93.97-1.68 93.97-1.64L93.97-1.64L93.97-1.64Q93.97-0.45 92.35 0.21L92.35 0.21L92.35 0.21Q90.73 0.86 89.30 0.86L89.30 0.86L89.30 0.86Q88.77 0.86 88.77 0.21L88.77 0.21L88.77 0.04L88.77 0.04Q89.75-5.00 89.75-15.87L89.75-15.87L89.75-15.87Q89.75-19.43 89.59-21.89L89.59-21.89L89.50-22.71L89.50-22.71Q89.42-23.86 89.03-24.68L89.03-24.68L89.03-24.68Q88.64-25.50 88.27-25.75L88.27-25.75L87.95-25.95L87.95-25.95Q87.66-26.12 87.66-26.32L87.66-26.32L87.66-26.32Q87.66-26.98 89.63-27.80L89.63-27.80L89.63-27.80Q91.59-28.62 93.03-28.62L93.03-28.62L93.03-28.62Q93.69-28.58 93.73-28.13L93.73-28.13L93.73-28.13Q93.93-26.49 93.93-21.38L93.93-21.38L93.93-21.38Q93.93-16.28 93.69-13.24L93.69-13.24L93.69-13.24Q93.69-12.75 93.85-12.75L93.85-12.75L93.85-12.75Q94.01-12.75 94.36-13.22L94.36-13.22L94.36-13.22Q94.71-13.69 95.59-14.72L95.59-14.72L95.59-14.72Q96.47-15.74 97.97-17.10L97.97-17.10L97.97-17.10Q99.47-18.45 100.39-18.45L100.39-18.45L100.39-18.45Q101.31-18.45 102.21-18.00L102.21-18.00L102.21-18.00Q103.12-17.55 103.12-17.14L103.12-17.14L102.66-16.85L102.66-16.85Q100.33-15.99 97.54-13.28ZM117.34-5.62L117.34-5.62L117.34-5.62Q117.34-3.85 116.67-2.54L116.67-2.54L116.67-2.54Q115.99-1.23 115.13-0.61L115.13-0.61L115.13-0.61Q114.27 0 113.08 0.37L113.08 0.37L113.08 0.37Q111.52 0.86 110.25 0.86L110.25 0.86L110.25 0.86Q107.58 0.86 105.82-0.18L105.82-0.18L105.82-0.18Q104.06-1.23 104.06-3.53L104.06-3.53L104.06-3.53Q104.06-4.88 104.80-5.74L104.80-5.74L104.80-5.74Q105.94-7.01 107.54-7.01L107.54-7.01L107.54-7.01Q108.03-7.01 108.03-6.56L108.03-6.56L108.03-6.56Q108.03-6.52 107.85-5.92L107.85-5.92L107.85-5.92Q107.67-5.33 107.67-4.43L107.67-4.43L107.67-4.43Q107.67-3.53 108.38-2.83L108.38-2.83L108.38-2.83Q109.10-2.13 110.13-2.13L110.13-2.13L110.13-2.13Q111.15-2.13 111.77-2.48L111.77-2.48L111.77-2.48Q112.38-2.83 112.63-3.36L112.63-3.36L112.63-3.36Q113.00-4.10 113.00-4.76L113.00-4.76L113.00-4.76Q113.00-5.95 111.81-6.81L111.81-6.81L111.81-6.81Q110.62-7.67 109.18-8.16L109.18-8.16L109.18-8.16Q107.75-8.65 106.56-9.80L106.56-9.80L106.56-9.80Q105.37-10.95 105.37-12.67L105.37-12.67L105.37-12.67Q105.37-15.62 107.24-17.10L107.24-17.10L107.24-17.10Q109.10-18.57 112.30-18.57L112.30-18.57L112.30-18.57Q113.69-18.57 115.23-18.18L115.23-18.18L115.23-18.18Q116.77-17.79 116.77-16.87L116.77-16.87L116.77-16.87Q116.77-15.95 116.46-15.17L116.46-15.17L116.46-15.17Q116.15-14.39 115.70-14.39L115.70-14.39L115.70-14.39Q115.46-14.39 115.37-14.58L115.37-14.58L115.37-14.58Q115.29-14.76 115.09-15.01L115.09-15.01L115.09-15.01Q114.88-15.25 114.10-15.64L114.10-15.64L114.10-15.64Q113.32-16.03 112.77-16.03L112.77-16.03L112.77-16.03Q112.22-16.03 112.03-16.01L112.03-16.01L112.03-16.01Q111.85-15.99 111.40-15.89L111.40-15.89L111.40-15.89Q110.95-15.79 110.58-15.58L110.58-15.58L110.58-15.58Q109.63-15.05 109.63-14.02L109.63-14.02L109.63-14.02Q109.63-13.37 109.92-13.06L109.92-13.06L109.92-13.06Q110.21-12.75 110.37-12.59L110.37-12.59L110.37-12.59Q110.54-12.42 110.95-12.20L110.95-12.20L110.95-12.20Q111.36-11.97 111.52-11.89L111.52-11.89L111.52-11.89Q111.68-11.81 112.26-11.54L112.26-11.54L112.26-11.54Q112.83-11.28 113.00-11.19L113.00-11.19L113.00-11.19Q117.34-9.14 117.34-5.62ZM124.27-22.02L124.27-22.02L124.23-18.04L124.23-18.04Q124.23-17.79 124.39-17.79L124.39-17.79L124.39-17.79Q124.56-17.79 124.72-17.92L124.72-17.92L124.72-17.92Q125.75-18.61 127.96-18.61L127.96-18.61L127.96-18.61Q131.69-18.61 133.13-16.07L133.13-16.07L133.13-16.07Q133.66-15.13 133.66-13.57L133.66-13.57L133.66-13.57Q133.66-12.01 133.48-9.27L133.48-9.27L133.48-9.27Q133.29-6.52 133.29-5.37L133.29-5.37L133.29-5.37Q133.29-1.35 134.44-0.04L134.44-0.04L134.44-0.04Q134.64 0.16 134.64 0.37L134.64 0.37L134.64 0.37Q134.64 0.78 132.88 0.78L132.88 0.78L132.88 0.78Q128.13 0.78 128.13-3.65L128.13-3.65L128.13-3.65Q128.13-5.37 128.94-8.49L128.94-8.49L128.94-8.49Q129.76-11.60 129.76-13.08L129.76-13.08L129.76-13.08Q129.76-14.56 129.07-15.35L129.07-15.35L129.07-15.35Q128.37-16.15 127.14-16.15L127.14-16.15L127.14-16.15Q125.91-16.15 125.19-15.62L125.19-15.62L125.19-15.62Q124.48-15.09 124.31-14.51L124.31-14.51L124.19-13.98L124.19-13.98Q124.15-13.20 124.15-9.02L124.15-9.02L124.15-9.02Q124.15-4.84 124.35-3.59L124.35-3.59L124.35-3.59Q124.56-2.34 124.56-2.17L124.56-2.17L124.56-2.17Q124.56-0.98 122.96-0.06L122.96-0.06L122.96-0.06Q121.36 0.86 119.80 0.86L119.80 0.86L119.80 0.86Q119.23 0.86 119.23 0.21L119.23 0.21L119.31-0.57L119.31-0.57Q120.21-7.46 120.21-15.50L120.21-15.50L120.21-15.50Q120.21-18.61 119.97-21.81L119.97-21.81L119.92-22.71L119.92-22.71Q119.84-23.86 119.45-24.68L119.45-24.68L119.45-24.68Q119.06-25.50 118.74-25.75L118.74-25.75L118.37-25.95L118.37-25.95Q118.08-26.12 118.08-26.32L118.08-26.32L118.08-26.32Q118.08-26.90 120.01-27.74L120.01-27.74L120.01-27.74Q121.93-28.58 122.98-28.58L122.98-28.58L122.98-28.58Q124.02-28.58 124.11-28.13L124.11-28.13L124.11-28.13Q124.27-26.04 124.27-22.02ZM149.57-12.30L149.57-12.30L149.49-7.05L149.49-7.05Q149.49-1.60 150.68-0.49L150.68-0.49L150.68-0.49Q150.84-0.33 150.84-0.12L150.84-0.12L150.84-0.12Q150.84 0.49 148.19 0.49L148.19 0.49L148.19 0.49Q145.55 0.49 145.39-1.07L145.39-1.07L145.39-1.07Q145.34-1.44 145.34-2.58L145.34-2.58L145.51-9.14L145.51-9.14Q145.51-9.43 145.18-9.43L145.18-9.43L145.18-9.43Q143.21-9.43 141.49-8.32L141.49-8.32L141.49-8.32Q139.77-7.22 139.77-5.49L139.77-5.49L139.77-5.49Q139.77-4.59 140.26-3.98L140.26-3.98L140.26-3.98Q140.75-3.36 141.47-3.36L141.47-3.36L141.47-3.36Q142.19-3.36 142.66-3.65L142.66-3.65L142.66-3.65Q143.13-3.94 143.21-3.98L143.21-3.98L143.21-3.98Q143.91-3.90 143.91-2.52L143.91-2.52L143.91-2.52Q143.91-1.15 142.64-0.31L142.64-0.31L142.64-0.31Q141.37 0.53 139.97 0.53L139.97 0.53L139.97 0.53Q138.58 0.53 137.58 0.04L137.58 0.04L137.58 0.04Q136.57-0.45 136.12-1.07L136.12-1.07L136.12-1.07Q135.67-1.68 135.38-2.46L135.38-2.46L135.38-2.46Q135.09-3.40 135.09-4.10L135.09-4.10L135.09-4.10Q135.09-6.97 136.90-8.69L136.90-8.69L136.90-8.69Q138.70-10.41 141.53-11.15L141.53-11.15L141.53-11.15Q145.26-11.89 145.43-12.51L145.43-12.51L145.43-12.51Q145.55-12.96 145.55-14.02L145.55-14.02L145.55-14.02Q145.55-16.20 143.34-16.20L143.34-16.20L143.34-16.20Q142.39-16.20 141.66-15.60L141.66-15.60L141.66-15.60Q140.92-15.01 140.92-14.10L140.92-14.10L141.16-13.12L141.16-13.12Q141.08-12.42 139.69-12.30L139.69-12.30L139.24-12.26L139.24-12.26Q138.01-12.26 137.29-12.87L137.29-12.87L137.29-12.87Q136.57-13.49 136.57-14.51L136.57-14.51L136.57-14.51Q136.57-15.17 137.00-15.97L137.00-15.97L137.00-15.97Q137.43-16.77 138.09-17.26L138.09-17.26L138.09-17.26Q138.74-17.75 140.12-18.14L140.12-18.14L140.12-18.14Q141.49-18.53 142.76-18.53L142.76-18.53L142.76-18.53Q144.03-18.53 144.73-18.45L144.73-18.45L144.73-18.45Q145.43-18.37 146.64-18.06L146.64-18.06L146.64-18.06Q147.85-17.75 148.65-16.89L148.65-16.89L148.65-16.89Q149.44-16.03 149.51-15.07L149.51-15.07L149.51-15.07Q149.57-14.10 149.57-12.30ZM160.43-15.95L160.43-15.95L160.23-23.70L160.23-23.70Q160.23-25.54 159.82-26.61L159.82-26.61L159.82-26.61Q159.41-27.68 159.41-27.76L159.41-27.76L159.41-27.76Q159.41-28.66 162.18-29.15L162.18-29.15L162.18-29.15Q164.94-29.64 166.40-29.64L166.40-29.64L166.40-29.64Q167.85-29.64 167.98-28.95L167.98-28.95L167.98-28.95Q170.56-17.43 172.32-12.96L172.32-12.96L172.32-12.96Q172.53-12.46 172.75-12.46L172.75-12.46L172.75-12.46Q172.98-12.46 173.14-12.83L173.14-12.83L173.14-12.83Q175.89-20.58 177.98-28.17L177.98-28.17L177.98-28.17Q178.14-28.66 178.80-28.93L178.80-28.93L178.80-28.93Q179.46-29.19 181.08-29.44L181.08-29.44L181.08-29.44Q182.70-29.68 184.29-29.68L184.29-29.68L184.29-29.68Q185.89-29.68 185.89-29.03L185.89-29.03L185.89-29.03Q185.89-28.99 185.77-28.39L185.77-28.39L185.77-28.39Q185.65-27.80 185.53-26.94L185.53-26.94L185.53-26.94Q185.40-26.08 185.24-24.85L185.24-24.85L185.24-24.85Q184.87-22.02 184.77-18.35L184.77-18.35L184.77-18.35Q184.66-14.68 184.66-10.99L184.66-10.99L184.75-6.68L184.75-6.68Q184.75-3.73 185.14-2.48L185.14-2.48L185.14-2.48Q185.53-1.23 185.53-1.05L185.53-1.05L185.53-1.05Q185.53-0.86 185.24-0.61L185.24-0.61L185.24-0.61Q183.97 0.41 181.38 0.41L181.38 0.41L181.38 0.41Q179.74 0.41 179.54-0.70L179.54-0.70L179.54-0.70Q179.42-1.27 179.42-2.52L179.42-2.52L179.42-2.52Q179.42-3.77 179.66-10.21L179.66-10.21L179.66-10.21Q179.91-16.65 179.91-19.58L179.91-19.58L179.91-19.58Q179.91-22.51 179.58-22.51L179.58-22.51L179.58-22.51Q179.54-22.51 179.54-22.49L179.54-22.49L179.54-22.49Q179.54-22.47 179.42-22.43L179.42-22.43L179.42-22.43Q179.29-22.39 178.78-21.16L178.78-21.16L178.78-21.16Q178.27-19.93 176.75-15.09L176.75-15.09L176.75-15.09Q175.23-10.25 174.00-6.05L174.00-6.05L174.00-6.05Q172.77-1.84 172.65-1.52L172.65-1.52L172.65-1.52Q172.20-0.41 170.93-0.41L170.93-0.41L170.93-0.41Q170.31-0.41 169.94-0.86L169.94-0.86L169.94-0.86Q168.63-6.93 165.27-18.20L165.27-18.20L164.12-21.94L164.12-21.94Q164.04-22.14 163.96-22.14L163.96-22.14L163.96-22.14Q163.75-22.14 163.67-21.85L163.67-21.85L163.67-21.85Q163.51-19.19 163.51-11.38L163.51-11.38L163.51-11.38Q163.51-3.57 164.08-1.52L164.08-1.52L164.08-1.52Q164.12-1.44 164.12-1.27L164.12-1.27L164.12-1.27Q164.12-0.41 162.77-0.02L162.77-0.02L162.77-0.02Q161.42 0.37 160.33 0.37L160.33 0.37L160.33 0.37Q159.24 0.37 159.24-0.12L159.24-0.12L159.24-0.12Q159.24-0.16 159.45-0.78L159.45-0.78L159.45-0.78Q160.06-2.87 160.25-6.85L160.25-6.85L160.25-6.85Q160.43-10.82 160.43-15.95ZM202.46-18.25L202.46-18.25L202.46-18.25Q201.72-13.82 201.72-6.97L201.72-6.97L201.72-6.97Q201.72-1.93 202.13-0.33L202.13-0.33L202.29 0.21L202.29 0.21Q202.29 0.74 201.39 0.74L201.39 0.74L201.39 0.74Q198.24 0.74 197.78-1.03L197.78-1.03L197.78-1.03Q197.74-1.23 197.60-1.23L197.60-1.23L197.60-1.23Q197.46-1.23 197.33-1.07L197.33-1.07L197.33-1.07Q196.06 0.61 193.40 0.61L193.40 0.61L193.40 0.61Q191.92 0.61 190.32-0.12L190.32-0.12L190.32-0.12Q189.34-0.57 188.72-1.70L188.72-1.70L188.72-1.70Q188.11-2.83 188.11-4.47L188.11-4.47L188.72-13.45L188.72-13.45Q188.72-16.28 188.15-17.47L188.15-17.47L188.15-17.47Q187.94-17.92 187.94-18.04L187.94-18.04L187.94-18.04Q187.94-18.29 188.15-18.37L188.15-18.37L188.15-18.37Q188.81-18.57 189.83-18.57L189.83-18.57L189.83-18.57Q193.81-18.57 193.81-15.29L193.81-15.29L193.81-15.29Q193.81-14.27 192.97-10.62L192.97-10.62L192.97-10.62Q192.13-6.97 192.13-5.43L192.13-5.43L192.13-5.43Q192.13-3.90 192.80-3.08L192.80-3.08L192.80-3.08Q193.48-2.25 194.69-2.25L194.69-2.25L194.69-2.25Q195.90-2.25 196.59-3.12L196.59-3.12L196.59-3.12Q197.29-3.98 197.41-4.84L197.41-4.84L197.54-5.70L197.54-5.70Q197.70-7.13 197.70-10.74L197.70-10.74L197.70-10.74Q197.70-14.35 197.48-15.31L197.48-15.31L197.48-15.31Q197.25-16.28 197.25-16.52L197.25-16.52L197.25-16.52Q197.25-17.55 198.89-18.14L198.89-18.14L198.89-18.14Q200.53-18.74 201.84-18.74L201.84-18.74L201.84-18.74Q202.46-18.74 202.46-18.25ZM213.28-13.28L213.28-13.28L213.28-13.28Q213.12-13.12 213.12-12.94L213.12-12.94L213.12-12.94Q213.12-12.75 213.88-12.59L213.88-12.59L213.88-12.59Q214.63-12.42 215.54-11.69L215.54-11.69L215.54-11.69Q216.44-10.95 216.89-10.09L216.89-10.09L216.89-10.09Q217.75-8.41 217.83-7.13L217.83-7.13L217.87-6.60L217.87-6.60Q218.08-1.80 219.64-0.04L219.64-0.04L219.64-0.04Q219.84 0.25 219.84 0.37L219.84 0.37L219.84 0.37Q219.84 0.82 218.69 0.82L218.69 0.82L218.69 0.82Q215.25 0.82 214.31-0.61L214.31-0.61L214.31-0.61Q213.81-1.19 213.81-4.18L213.81-4.18L213.81-5.21L213.81-5.21Q213.81-9.02 212.87-10.50L212.87-10.50L212.87-10.50Q212.38-11.19 211.66-11.19L211.66-11.19L211.66-11.19Q210.94-11.19 210.17-9.94L210.17-9.94L210.17-9.94Q209.39-8.69 209.39-7.83L209.39-7.83L209.39-7.83Q209.39-4.39 209.55-3.03L209.55-3.03L209.55-3.03Q209.72-1.68 209.72-1.64L209.72-1.64L209.72-1.64Q209.72-0.45 208.10 0.21L208.10 0.21L208.10 0.21Q206.48 0.86 205.04 0.86L205.04 0.86L205.04 0.86Q204.51 0.86 204.51 0.21L204.51 0.21L204.51 0.04L204.51 0.04Q205.49-5.00 205.49-15.87L205.49-15.87L205.49-15.87Q205.49-19.43 205.33-21.89L205.33-21.89L205.25-22.71L205.25-22.71Q205.16-23.86 204.77-24.68L204.77-24.68L204.77-24.68Q204.38-25.50 204.02-25.75L204.02-25.75L203.69-25.95L203.69-25.95Q203.40-26.12 203.40-26.32L203.40-26.32L203.40-26.32Q203.40-26.98 205.37-27.80L205.37-27.80L205.37-27.80Q207.34-28.62 208.77-28.62L208.77-28.62L208.77-28.62Q209.43-28.58 209.47-28.13L209.47-28.13L209.47-28.13Q209.67-26.49 209.67-21.38L209.67-21.38L209.67-21.38Q209.67-16.28 209.43-13.24L209.43-13.24L209.43-13.24Q209.43-12.75 209.59-12.75L209.59-12.75L209.59-12.75Q209.76-12.75 210.10-13.22L210.10-13.22L210.10-13.22Q210.45-13.69 211.33-14.72L211.33-14.72L211.33-14.72Q212.22-15.74 213.71-17.10L213.71-17.10L213.71-17.10Q215.21-18.45 216.13-18.45L216.13-18.45L216.13-18.45Q217.05-18.45 217.96-18.00L217.96-18.00L217.96-18.00Q218.86-17.55 218.86-17.14L218.86-17.14L218.41-16.85L218.41-16.85Q216.07-15.99 213.28-13.28ZM225.91-22.02L225.91-22.02L225.87-18.04L225.87-18.04Q225.87-17.79 226.03-17.79L226.03-17.79L226.03-17.79Q226.20-17.79 226.36-17.92L226.36-17.92L226.36-17.92Q227.39-18.61 229.60-18.61L229.60-18.61L229.60-18.61Q233.33-18.61 234.77-16.07L234.77-16.07L234.77-16.07Q235.30-15.13 235.30-13.57L235.30-13.57L235.30-13.57Q235.30-12.01 235.11-9.27L235.11-9.27L235.11-9.27Q234.93-6.52 234.93-5.37L234.93-5.37L234.93-5.37Q234.93-1.35 236.08-0.04L236.08-0.04L236.08-0.04Q236.28 0.16 236.28 0.37L236.28 0.37L236.28 0.37Q236.28 0.78 234.52 0.78L234.52 0.78L234.52 0.78Q229.76 0.78 229.76-3.65L229.76-3.65L229.76-3.65Q229.76-5.37 230.58-8.49L230.58-8.49L230.58-8.49Q231.40-11.60 231.40-13.08L231.40-13.08L231.40-13.08Q231.40-14.56 230.71-15.35L230.71-15.35L230.71-15.35Q230.01-16.15 228.78-16.15L228.78-16.15L228.78-16.15Q227.55-16.15 226.83-15.62L226.83-15.62L226.83-15.62Q226.11-15.09 225.95-14.51L225.95-14.51L225.83-13.98L225.83-13.98Q225.79-13.20 225.79-9.02L225.79-9.02L225.79-9.02Q225.79-4.84 225.99-3.59L225.99-3.59L225.99-3.59Q226.20-2.34 226.20-2.17L226.20-2.17L226.20-2.17Q226.20-0.98 224.60-0.06L224.60-0.06L224.60-0.06Q223.00 0.86 221.44 0.86L221.44 0.86L221.44 0.86Q220.87 0.86 220.87 0.21L220.87 0.21L220.95-0.57L220.95-0.57Q221.85-7.46 221.85-15.50L221.85-15.50L221.85-15.50Q221.85-18.61 221.60-21.81L221.60-21.81L221.56-22.71L221.56-22.71Q221.48-23.86 221.09-24.68L221.09-24.68L221.09-24.68Q220.70-25.50 220.38-25.75L220.38-25.75L220.01-25.95L220.01-25.95Q219.72-26.12 219.72-26.32L219.72-26.32L219.72-26.32Q219.72-26.90 221.65-27.74L221.65-27.74L221.65-27.74Q223.57-28.58 224.62-28.58L224.62-28.58L224.62-28.58Q225.66-28.58 225.75-28.13L225.75-28.13L225.75-28.13Q225.91-26.04 225.91-22.02ZM241.41-10.41L241.41-10.41L241.45-9.39L241.45-9.39Q241.45-9.14 241.78-9.14L241.78-9.14L241.78-9.14Q243.09-9.27 244.07-9.82L244.07-9.82L244.07-9.82Q245.06-10.37 245.55-11.07L245.55-11.07L245.55-11.07Q246.53-12.59 246.61-13.69L246.61-13.69L246.66-14.19L246.66-14.19Q246.66-16.40 244.89-16.40L244.89-16.40L244.89-16.40Q243.58-16.40 242.76-15.25L242.76-15.25L242.76-15.25Q241.41-13.45 241.41-10.41ZM250.35-4.96L250.35-4.96L250.35-4.96Q250.35-3.40 249.71-2.23L249.71-2.23L249.71-2.23Q249.07-1.07 248.28-0.51L248.28-0.51L248.28-0.51Q247.48 0.04 246.41 0.37L246.41 0.37L246.41 0.37Q245.06 0.78 243.83 0.78L243.83 0.78L243.83 0.78Q240.38 0.78 238.74-1.80L238.74-1.80L238.74-1.80Q237.10-4.39 237.10-8.38L237.10-8.38L237.10-8.38Q237.10-12.38 239.13-15.50L239.13-15.50L239.13-15.50Q241.16-18.61 245.22-18.61L245.22-18.61L245.22-18.61Q248.91-18.61 250.22-16.03L250.22-16.03L250.22-16.03Q250.76-15.05 250.76-14.17L250.76-14.17L250.76-14.17Q250.76-13.28 250.67-12.77L250.67-12.77L250.67-12.77Q250.59-12.26 250.10-11.23L250.10-11.23L250.10-11.23Q249.61-10.21 248.79-9.39L248.79-9.39L248.79-9.39Q247.97-8.57 246.20-7.83L246.20-7.83L246.20-7.83Q244.44-7.09 242.06-6.85L242.06-6.85L242.06-6.85Q241.74-6.85 241.74-6.56L241.74-6.56L241.74-6.56Q241.74-6.19 242.00-5.47L242.00-5.47L242.00-5.47Q242.27-4.76 242.60-4.26L242.60-4.26L242.60-4.26Q243.50-3.12 245.26-3.12L245.26-3.12L245.26-3.12Q247.02-3.12 248.25-4.26L248.25-4.26L248.25-4.26Q248.91-4.88 249.32-5.78L249.32-5.78L249.32-5.78Q249.48-6.11 249.75-6.11L249.75-6.11L249.75-6.11Q250.02-6.11 250.18-5.66L250.18-5.66L250.18-5.66Q250.35-5.21 250.35-4.96ZM264.90-14.10L264.70-10.99L264.86-9.55L264.86-9.55Q264.86-8.77 263.38-8.77L263.38-8.77L263.38-8.77Q260.39-8.77 260.39-11.03L260.39-11.03L260.39-11.03Q260.39-11.56 260.68-12.51L260.68-12.51L260.68-12.51Q260.96-13.45 260.96-14.15L260.96-14.15L260.96-14.15Q260.96-14.84 260.56-15.35L260.56-15.35L260.56-15.35Q260.14-15.87 259.37-15.87L259.37-15.87L259.37-15.87Q258.59-15.87 258.03-15.31L258.03-15.31L258.03-15.31Q257.48-14.76 257.36-14.19L257.36-14.19L257.19-13.61L257.19-13.61Q256.95-12.34 256.95-9.37L256.95-9.37L256.95-9.37Q256.95-6.40 257.03-4.69L257.03-4.69L257.03-4.69Q257.11-2.99 257.19-2.36L257.19-2.36L257.19-2.36Q257.27-1.72 257.27-1.60L257.27-1.60L257.27-1.60Q257.27-0.57 256.00 0.06L256.00 0.06L256.00 0.06Q254.73 0.70 253.46 0.70L253.46 0.70L253.46 0.70Q252.19 0.70 252.19 0.16L252.19 0.16L252.40-1.11L252.40-1.11Q252.97-4.67 252.97-10.41L252.97-10.41L252.97-10.41Q252.97-16.15 252.56-18.20L252.56-18.20L252.56-18.20Q252.56-18.70 253.42-18.70L253.42-18.70L253.42-18.70Q255.63-18.70 256.37-17.18L256.37-17.18L256.37-17.18Q256.41-17.02 256.52-17.02L256.52-17.02L256.52-17.02Q256.62-17.02 257.07-17.38L257.07-17.38L257.07-17.38Q258.42-18.49 260.27-18.49L260.27-18.49L260.27-18.49Q261.42-18.49 262.56-18.04L262.56-18.04L262.56-18.04Q264.90-17.10 264.90-14.10L264.90-14.10ZM270.68-21.94L270.68-21.94L269.70-21.98L269.70-21.98Q268.59-21.98 268.26-21.44L268.26-21.44L268.26-21.44Q268.18-21.32 268.06-21.32L268.06-21.32L268.06-21.32Q267.52-21.32 267.52-23.14L267.52-23.14L267.52-23.14Q267.52-24.97 268.08-25.46L268.08-25.46L268.08-25.46Q268.63-25.95 270.03-25.95L270.03-25.95L270.03-25.95Q271.42-25.95 271.89-25.48L271.89-25.48L271.89-25.48Q272.36-25.01 272.36-23.90L272.36-23.90L272.36-23.90Q272.36-22.80 271.99-22.37L271.99-22.37L271.99-22.37Q271.62-21.94 270.68-21.94ZM272.44-18.04L272.44-18.04L272.44-18.04Q272.08-14.72 272.08-10.25L272.08-10.25L272.08-10.25Q271.91-4.22 271.91 0.12L271.91 0.12L271.95 3.36L271.95 3.36Q271.95 5.49 271.32 7.32L271.32 7.32L271.32 7.32Q270.68 9.14 269.80 10.29L269.80 10.29L269.80 10.29Q268.92 11.44 267.14 12.30L267.14 12.30L267.14 12.30Q265.35 13.16 262.97 13.16L262.97 13.16L262.97 13.16Q262.24 13.16 262.24 12.63L262.24 12.63L262.24 12.63Q262.24 12.34 262.89 12.05L262.89 12.05L262.89 12.05Q265.76 10.70 266.97 5.99L266.97 5.99L266.97 5.99Q268.18 1.27 268.18-5.49L268.18-5.49L268.18-5.49Q268.18-15.01 266.70-15.91L266.70-15.91L266.70-15.91Q266.29-16.20 266.29-16.40L266.29-16.40L266.29-16.40Q266.29-17.10 268.43-17.79L268.43-17.79L268.43-17.79Q270.56-18.49 271.50-18.49L271.50-18.49L271.50-18.49Q272.44-18.49 272.44-18.04ZM278.80-10.41L278.80-10.41L278.84-9.39L278.84-9.39Q278.84-9.14 279.17-9.14L279.17-9.14L279.17-9.14Q280.48-9.27 281.46-9.82L281.46-9.82L281.46-9.82Q282.45-10.37 282.94-11.07L282.94-11.07L282.94-11.07Q283.92-12.59 284.01-13.69L284.01-13.69L284.05-14.19L284.05-14.19Q284.05-16.40 282.28-16.40L282.28-16.40L282.28-16.40Q280.97-16.40 280.15-15.25L280.15-15.25L280.15-15.25Q278.80-13.45 278.80-10.41ZM287.74-4.96L287.74-4.96L287.74-4.96Q287.74-3.40 287.10-2.23L287.10-2.23L287.10-2.23Q286.47-1.07 285.67-0.51L285.67-0.51L285.67-0.51Q284.87 0.04 283.80 0.37L283.80 0.37L283.80 0.37Q282.45 0.78 281.22 0.78L281.22 0.78L281.22 0.78Q277.77 0.78 276.13-1.80L276.13-1.80L276.13-1.80Q274.49-4.39 274.49-8.38L274.49-8.38L274.49-8.38Q274.49-12.38 276.52-15.50L276.52-15.50L276.52-15.50Q278.55-18.61 282.61-18.61L282.61-18.61L282.61-18.61Q286.30-18.61 287.61-16.03L287.61-16.03L287.61-16.03Q288.15-15.05 288.15-14.17L288.15-14.17L288.15-14.17Q288.15-13.28 288.07-12.77L288.07-12.77L288.07-12.77Q287.98-12.26 287.49-11.23L287.49-11.23L287.49-11.23Q287.00-10.21 286.18-9.39L286.18-9.39L286.18-9.39Q285.36-8.57 283.60-7.83L283.60-7.83L283.60-7.83Q281.83-7.09 279.46-6.85L279.46-6.85L279.46-6.85Q279.13-6.85 279.13-6.56L279.13-6.56L279.13-6.56Q279.13-6.19 279.39-5.47L279.39-5.47L279.39-5.47Q279.66-4.76 279.99-4.26L279.99-4.26L279.99-4.26Q280.89-3.12 282.65-3.12L282.65-3.12L282.65-3.12Q284.42-3.12 285.65-4.26L285.65-4.26L285.65-4.26Q286.30-4.88 286.71-5.78L286.71-5.78L286.71-5.78Q286.88-6.11 287.14-6.11L287.14-6.11L287.14-6.11Q287.41-6.11 287.57-5.66L287.57-5.66L287.57-5.66Q287.74-5.21 287.74-4.96ZM293.89-10.41L293.89-10.41L293.93-9.39L293.93-9.39Q293.93-9.14 294.26-9.14L294.26-9.14L294.26-9.14Q295.57-9.27 296.55-9.82L296.55-9.82L296.55-9.82Q297.54-10.37 298.03-11.07L298.03-11.07L298.03-11.07Q299.01-12.59 299.09-13.69L299.09-13.69L299.14-14.19L299.14-14.19Q299.14-16.40 297.37-16.40L297.37-16.40L297.37-16.40Q296.06-16.40 295.24-15.25L295.24-15.25L295.24-15.25Q293.89-13.45 293.89-10.41ZM302.83-4.96L302.83-4.96L302.83-4.96Q302.83-3.40 302.19-2.23L302.19-2.23L302.19-2.23Q301.55-1.07 300.76-0.51L300.76-0.51L300.76-0.51Q299.96 0.04 298.89 0.37L298.89 0.37L298.89 0.37Q297.54 0.78 296.31 0.78L296.31 0.78L296.31 0.78Q292.86 0.78 291.22-1.80L291.22-1.80L291.22-1.80Q289.58-4.39 289.58-8.38L289.58-8.38L289.58-8.38Q289.58-12.38 291.61-15.50L291.61-15.50L291.61-15.50Q293.64-18.61 297.70-18.61L297.70-18.61L297.70-18.61Q301.39-18.61 302.70-16.03L302.70-16.03L302.70-16.03Q303.24-15.05 303.24-14.17L303.24-14.17L303.24-14.17Q303.24-13.28 303.15-12.77L303.15-12.77L303.15-12.77Q303.07-12.26 302.58-11.23L302.58-11.23L302.58-11.23Q302.09-10.21 301.27-9.39L301.27-9.39L301.27-9.39Q300.45-8.57 298.69-7.83L298.69-7.83L298.69-7.83Q296.92-7.09 294.54-6.85L294.54-6.85L294.54-6.85Q294.22-6.85 294.22-6.56L294.22-6.56L294.22-6.56Q294.22-6.19 294.48-5.47L294.48-5.47L294.48-5.47Q294.75-4.76 295.08-4.26L295.08-4.26L295.08-4.26Q295.98-3.12 297.74-3.12L297.74-3.12L297.74-3.12Q299.50-3.12 300.73-4.26L300.73-4.26L300.73-4.26Q301.39-4.88 301.80-5.78L301.80-5.78L301.80-5.78Q301.96-6.11 302.23-6.11L302.23-6.11L302.23-6.11Q302.50-6.11 302.66-5.66L302.66-5.66L302.66-5.66Q302.83-5.21 302.83-4.96Z" fill="url(#editing-sticker-gradient)" stroke="#000000" stroke-width="2" class="dBNZXxtm_0"></path></g></g><style>text {
  font-size: 64px;
  font-family: Arial Black;
  dominant-baseline: central;
  text-anchor: middle;
}</style><style data-made-with="vivus-instant">.dBNZXxtm_0{stroke-dasharray:1974 1976;stroke-dashoffset:1975;animation:dBNZXxtm_draw_0 5200ms ease-in 0ms infinite,dBNZXxtm_fade 5200ms linear 0ms infinite;}@keyframes dBNZXxtm_draw{100%{stroke-dashoffset:0;}}@keyframes dBNZXxtm_fade{0%{stroke-opacity:1;}92.3076923076923%{stroke-opacity:1;}100%{stroke-opacity:0;}}@keyframes dBNZXxtm_draw_0{15.384615384615385%{stroke-dashoffset: 1975}34.61538461538461%{ stroke-dashoffset: 0;}100%{ stroke-dashoffset: 0;}}</style></svg>